<svg width="16" height="16" viewBox="0 0 16 16" fill="none" xmlns="http://www.w3.org/2000/svg">
<mask id="mask0_359_2929" style="mask-type:alpha" maskUnits="userSpaceOnUse" x="0" y="0" width="16" height="16">
<rect width="16" height="16" fill="#D9D9D9"/>
</mask>
<g mask="url(#mask0_359_2929)">
<path d="M7.99992 8.00001C7.43325 8.00001 6.95825 7.80834 6.57492 7.42501C6.19159 7.04168 5.99992 6.56668 5.99992 6.00001C5.99992 5.44445 6.19159 4.97223 6.57492 4.58334C6.95825 4.19445 7.43325 4.00001 7.99992 4.00001C8.55547 4.00001 9.0277 4.19445 9.41658 4.58334C9.80547 4.97223 9.99992 5.44445 9.99992 6.00001C9.99992 6.56668 9.80547 7.04168 9.41658 7.42501C9.0277 7.80834 8.55547 8.00001 7.99992 8.00001ZM7.99992 6.66668C8.18881 6.66668 8.34714 6.60279 8.47492 6.47501C8.6027 6.34723 8.66658 6.1889 8.66658 6.00001C8.66658 5.81112 8.6027 5.65279 8.47492 5.52501C8.34714 5.39723 8.18881 5.33334 7.99992 5.33334C7.81103 5.33334 7.6527 5.39723 7.52492 5.52501C7.39714 5.65279 7.33325 5.81112 7.33325 6.00001C7.33325 6.1889 7.39714 6.34723 7.52492 6.47501C7.6527 6.60279 7.81103 6.66668 7.99992 6.66668ZM3.99992 12V10.7333C3.99992 10.5 4.05825 10.2806 4.17492 10.075C4.29159 9.86945 4.44992 9.70557 4.64992 9.58334C5.16103 9.28334 5.69714 9.05557 6.25825 8.90001C6.81936 8.74445 7.39992 8.66668 7.99992 8.66668C8.59992 8.66668 9.18047 8.74445 9.74158 8.90001C10.3027 9.05557 10.8388 9.28334 11.3499 9.58334C11.5499 9.70557 11.7083 9.86945 11.8249 10.075C11.9416 10.2806 11.9999 10.5 11.9999 10.7333V12H3.99992ZM7.99992 10C7.54436 10 7.09992 10.0556 6.66658 10.1667C6.23325 10.2778 5.82214 10.4445 5.43325 10.6667H10.5666C10.1777 10.4445 9.76658 10.2778 9.33325 10.1667C8.89992 10.0556 8.45547 10 7.99992 10ZM2.66659 14.6667C2.29992 14.6667 1.98603 14.5361 1.72492 14.275C1.46381 14.0139 1.33325 13.7 1.33325 13.3333V10.6667H2.66659V13.3333H5.33325V14.6667H2.66659ZM1.33325 5.33334V2.66668C1.33325 2.30001 1.46381 1.98612 1.72492 1.72501C1.98603 1.4639 2.29992 1.33334 2.66659 1.33334H5.33325V2.66668H2.66659V5.33334H1.33325ZM10.6666 14.6667V13.3333H13.3333V10.6667H14.6666V13.3333C14.6666 13.7 14.536 14.0139 14.2749 14.275C14.0138 14.5361 13.6999 14.6667 13.3333 14.6667H10.6666ZM13.3333 5.33334V2.66668H10.6666V1.33334H13.3333C13.6999 1.33334 14.0138 1.4639 14.2749 1.72501C14.536 1.98612 14.6666 2.30001 14.6666 2.66668V5.33334H13.3333Z" fill="#1C1B1F"/>
</g>
</svg>
