<svg width="121" height="120" viewBox="0 0 121 120" fill="none" xmlns="http://www.w3.org/2000/svg">
<mask id="mask0_359_4055" style="mask-type:alpha" maskUnits="userSpaceOnUse" x="0" y="0" width="121" height="120">
<rect x="0.5" width="120" height="120" fill="#D9D9D9"/>
</mask>
<g mask="url(#mask0_359_4055)">
<path d="M43.5 112.5L34 96.5L16 92.5L17.75 74L5.5 60L17.75 46L16 27.5L34 23.5L43.5 7.5L60.5 14.75L77.5 7.5L87 23.5L105 27.5L103.25 46L115.5 60L103.25 74L105 92.5L87 96.5L77.5 112.5L60.5 105.25L43.5 112.5ZM47.75 99.75L60.5 94.25L73.5 99.75L80.5 87.75L94.25 84.5L93 70.5L102.25 60L93 49.25L94.25 35.25L80.5 32.25L73.25 20.25L60.5 25.75L47.5 20.25L40.5 32.25L26.75 35.25L28 49.25L18.75 60L28 70.5L26.75 84.75L40.5 87.75L47.75 99.75ZM55.25 77.75L83.5 49.5L76.5 42.25L55.25 63.5L44.5 53L37.5 60L55.25 77.75Z" fill="#356BFF"/>
</g>
</svg>
